<svg width="100" height="100" viewBox="0 0 100 100" fill="none" xmlns="http://www.w3.org/2000/svg">
<rect x="2" y="2" width="96" height="96" rx="8" fill="white" stroke="black" stroke-width="4"/>
<path d="M40.2557 68.8C38.489 68.8 36.8557 68.5333 35.3557 68C33.8557 67.4333 32.5223 66.6833 31.3557 65.75C30.189 64.7833 29.2723 63.6833 28.6057 62.45C27.9723 61.2167 27.6223 59.9333 27.5557 58.6C27.5557 57.1333 28.639 56.4 30.8057 56.4C31.4723 56.4 31.9723 56.4667 32.3057 56.6C32.639 56.7333 32.9057 56.9833 33.1057 57.35C33.3057 57.7167 33.5057 58.2167 33.7057 58.85C33.939 59.5167 34.3223 60.1667 34.8557 60.8C35.4223 61.4333 36.1557 61.9667 37.0557 62.4C37.9557 62.8 39.039 63 40.3057 63C41.6723 63 42.8557 62.7833 43.8557 62.35C44.8557 61.8833 45.6223 61.25 46.1557 60.45C46.7223 59.65 47.0057 58.7333 47.0057 57.7C47.0057 56.6667 46.7223 55.7833 46.1557 55.05C45.6223 54.2833 44.889 53.7 43.9557 53.3C43.0223 52.8667 41.9557 52.65 40.7557 52.65C40.1223 52.65 39.5557 52.6 39.0557 52.5C38.589 52.4 38.2057 52.15 37.9057 51.75C37.639 51.35 37.5057 50.6833 37.5057 49.75C37.5057 48.7833 37.639 48.1167 37.9057 47.75C38.2057 47.35 38.6057 47.1 39.1057 47C39.6057 46.9 40.1723 46.85 40.8057 46.85C41.939 46.85 42.8723 46.7 43.6057 46.4C44.3723 46.1 44.9557 45.6833 45.3557 45.15C45.7557 44.6167 45.9557 44.0167 45.9557 43.35C45.9557 42.45 45.739 41.6667 45.3057 41C44.8723 40.3 44.2557 39.7667 43.4557 39.4C42.689 39 41.7723 38.8 40.7057 38.8C39.739 38.8 38.9057 38.9333 38.2057 39.2C37.5057 39.4333 36.889 39.7833 36.3557 40.25C35.8557 40.7167 35.389 41.2833 34.9557 41.95C34.4557 42.9167 33.8723 43.4833 33.2057 43.65C32.5723 43.8167 31.739 43.6 30.7057 43C29.8723 42.5 29.3723 41.9667 29.2057 41.4C29.039 40.8 29.1557 40.1167 29.5557 39.35C29.6557 39.1167 29.839 38.7667 30.1057 38.3C30.4057 37.8 30.8223 37.2667 31.3557 36.7C31.9223 36.1 32.6057 35.5333 33.4057 35C34.2057 34.4333 35.189 33.9667 36.3557 33.6C37.5223 33.2333 38.8723 33.05 40.4057 33.05C42.2723 33.05 43.9223 33.35 45.3557 33.95C46.789 34.5167 48.0057 35.2833 49.0057 36.25C50.0057 37.1833 50.7557 38.25 51.2557 39.45C51.789 40.6167 52.0557 41.8333 52.0557 43.1C52.0557 44.2333 51.839 45.25 51.4057 46.15C50.9723 47.05 50.439 47.8 49.8057 48.4C49.1723 49 48.539 49.45 47.9057 49.75C48.6057 50.05 49.2557 50.4667 49.8557 51C50.489 51.5333 51.039 52.1667 51.5057 52.9C52.0057 53.6 52.389 54.35 52.6557 55.15C52.9223 55.95 53.0557 56.7667 53.0557 57.6C53.0557 59.7333 52.5057 61.65 51.4057 63.35C50.339 65.05 48.839 66.3833 46.9057 67.35C44.9723 68.3167 42.7557 68.8 40.2557 68.8ZM69.1096 68.55C68.0096 68.55 67.2429 68.3333 66.8096 67.9C66.3762 67.4333 66.1596 66.6333 66.1596 65.5V36.5C66.1596 35.4 66.3762 34.6333 66.8096 34.2C67.2429 33.7667 68.0262 33.55 69.1596 33.55C70.2596 33.55 71.0262 33.7833 71.4596 34.25C71.8929 34.6833 72.1096 35.4667 72.1096 36.6V65.55C72.1096 66.65 71.8929 67.4333 71.4596 67.9C71.0262 68.3333 70.2429 68.55 69.1096 68.55ZM61.4096 46.6C60.6429 47.3 59.9596 47.65 59.3596 47.65C58.7596 47.6167 58.0929 47.2 57.3596 46.4C56.6596 45.6333 56.3262 44.9167 56.3596 44.25C56.4262 43.5833 56.8929 42.8667 57.7596 42.1L66.3096 34.55C67.0762 33.8833 67.7596 33.5833 68.3596 33.65C68.9929 33.6833 69.6596 34.0833 70.3596 34.85C71.0929 35.6167 71.4262 36.3333 71.3596 37C71.2929 37.6667 70.8096 38.3833 69.9096 39.15L61.4096 46.6Z" fill="black"/>
</svg>
