<svg width="100" height="100" viewBox="0 0 100 100" fill="none" xmlns="http://www.w3.org/2000/svg">
<rect x="2" y="2" width="96" height="96" rx="8" fill="white" stroke="black" stroke-width="4"/>
<path d="M46.2758 68.5C45.3424 68.5 44.6591 68.4 44.2258 68.2C43.8258 68 43.5591 67.7167 43.4258 67.35C43.2924 66.9833 43.2258 66.5667 43.2258 66.1C43.2258 64.1667 43.5091 62.2833 44.0758 60.45C44.6424 58.6167 45.3758 56.8333 46.2758 55.1C47.1758 53.3667 48.1258 51.7333 49.1258 50.2C50.1258 48.6333 51.0591 47.1833 51.9258 45.85C52.8258 44.5167 53.5591 43.3167 54.1258 42.25C54.7258 41.1833 55.0258 40.3 55.0258 39.6H40.9258C40.3924 39.6 39.8924 39.5333 39.4258 39.4C38.9591 39.2667 38.5924 39 38.3258 38.6C38.0591 38.1667 37.9258 37.4833 37.9258 36.55C37.9258 35.6167 38.0424 34.95 38.2758 34.55C38.5424 34.1167 38.8758 33.85 39.2758 33.75C39.7091 33.6167 40.1758 33.55 40.6758 33.55H59.0758C60.0424 33.55 60.7258 33.7167 61.1258 34.05C61.5258 34.35 61.7758 34.75 61.8758 35.25C62.0091 35.7167 62.0758 36.25 62.0758 36.85C62.0758 38.25 61.7591 39.7167 61.1258 41.25C60.5258 42.75 59.7424 44.3 58.7758 45.9C57.8424 47.5 56.8258 49.1333 55.7258 50.8C54.6258 52.4667 53.5924 54.1667 52.6258 55.9C51.6591 57.6 50.8591 59.3167 50.2258 61.05C49.6258 62.75 49.3258 64.4667 49.3258 66.2C49.3258 66.6333 49.2591 67.0333 49.1258 67.4C49.0258 67.7333 48.7591 68 48.3258 68.2C47.8924 68.4 47.2091 68.5 46.2758 68.5Z" fill="black"/>
</svg>
